<svg version="1.0" xmlns="http://www.w3.org/2000/svg"
     width="1000.000000pt" height="1053.000000pt" viewBox="0 0 1000.000000 1053.000000"
     preserveAspectRatio="xMidYMid meet">
    <g transform="translate(0.000000,1053.000000) scale(0.100000,-0.100000)"
       fill="#0054a6" stroke="none">
        <path d="M3485 9701 c-498 -88 -1142 -422 -1529 -792 -450 -430 -661 -955
-736 -1834 -18 -208 -24 -773 -11 -937 39 -467 135 -836 310 -1187 256 -515
675 -926 1225 -1203 267 -134 678 -274 837 -285 279 -19 545 166 598 417 9 41
11 478 9 1756 l-3 1701 -42 85 c-89 180 -258 297 -474 330 l-84 13 -3 195 c-1
107 0 204 2 216 5 19 15 22 88 27 320 23 578 252 668 592 33 127 37 243 11
345 -66 266 -288 502 -527 564 -80 21 -211 19 -339 -3z"/>
        <path d="M6569 9706 c-192 -55 -371 -211 -468 -405 -58 -116 -75 -181 -75
-296 1 -229 88 -441 248 -600 123 -123 268 -188 447 -203 l84 -7 3 -217 2
-218 -32 0 c-66 -1 -175 -31 -258 -71 -156 -77 -283 -231 -310 -378 -6 -35
-10 -643 -9 -1720 0 -1542 1 -1671 17 -1732 48 -184 220 -338 428 -385 113
-25 217 -15 389 36 426 126 811 317 1114 553 126 98 331 299 425 417 222 278
394 618 491 969 95 343 126 607 126 1054 -2 1068 -176 1738 -576 2217 -98 117
-279 287 -406 383 -379 283 -858 508 -1264 592 -108 22 -316 29 -376 11z"/>
    </g>
</svg>
